# File created by Blade
# Date/Time:  Tue Apr 07 21:12:45 2015
#---------------------------------------------------------
:version 1.10
:name HOM
:units
  mass 1.0
  length 1.000000
  angle deg
:documentation
     Acclaim Skeleton File
:root
   axis xyz
   order TX TY TZ RX RY RZ
   position 0.000000 0.000000 0.000000
   orientation 0 0 0
:bonedata
   begin
      id 1
      name Spine_dum
      direction 0.000000 1.000000 0.000000
      length 4.885285
      axis 0.0 0.0 0.0 xyz
   end
   begin
      id 2
      name LeftUpLeg_dum
      direction 1.000000 0.000000 0.000000
      length 2.672193
      axis 0.0 0.0 0.0 xyz
   end
   begin
      id 3
      name RightUpLeg_dum
      direction -1.000000 0.000000 0.000000
      length 2.672193
      axis 0.0 0.0 0.0 xyz
   end
   begin
      id 4
      name Spine
      direction 0.000000 1.000000 0.000000
      length 0.000000
      axis 0.0 0.0 0.0 xyz
      dof rx ry rz
   end
   begin
      id 5
      name Spine_dum1
      direction 0.000000 1.000000 0.000000
      length 16.494159
      axis 0.0 0.0 0.0 xyz
   end
   begin
      id 6
      name Spine_dum2
      direction 0.000000 1.000000 0.000000
      length 10.663448
      axis 0.0 0.0 0.0 xyz
   end
   begin
      id 7
      name Spine_dum3
      direction 0.000000 1.000000 0.000000
      length 10.663448
      axis 0.0 0.0 0.0 xyz
   end
   begin
      id 8
      name Head
      direction 0.000000 1.000000 0.000000
      length 4.527550
      axis 0.0 0.0 0.0 xyz
      dof rx ry rz
   end
   begin
      id 9
      name LeftShoulder
      direction 1.000000 0.000000 0.000000
      length 7.531907
      axis 0.0 0.0 -90.0 xyz
      dof rx ry rz
   end
   begin
      id 10
      name LeftArm
      direction 1.000000 0.000000 0.000000
      length 10.229199
      axis 0.0 0.0 -90.0 xyz
      dof rx ry rz
   end
   begin
      id 11
      name LeftForeArm
      direction 1.000000 0.000000 0.000000
      length 8.673495
      axis 0.0 0.0 -90.0 xyz
      dof ry rz rx
   end
   begin
      id 12
      name LeftHand
      direction 0.000000 0.000000 0.000000
      length 0.000000
      axis 0.0 0.0 -90.0 xyz
      dof rx ry rz
   end
   begin
      id 13
      name LeftHand_dum1
      direction 0.000000 0.000000 0.000000
      length 0.000000
      axis 0.0 0.0 -90.0 xyz
   end
   begin
      id 14
      name LeftHand_dum2
      direction 1.000000 0.000000 0.000000
      length 3.937000
      axis 0.0 0.0 -90.0 xyz
   end
   begin
      id 15
      name LeftHandThumb1
      direction 0.000000 0.000000 1.000000
      length 3.937000
      axis 0.0 0.0 -90.0 xyz
      dof rx rz ry
   end
   begin
      id 16
      name RightShoulder
      direction -1.000000 0.000000 0.000000
      length 7.531907
      axis 0.0 0.0 90.0 xyz
      dof rx ry rz
   end
   begin
      id 17
      name RightArm
      direction -1.000000 0.000000 0.000000
      length 10.229199
      axis 0.0 0.0 90.0 xyz
      dof rx ry rz
   end
   begin
      id 18
      name RightForeArm
      direction -1.000000 0.000000 0.000000
      length 8.673495
      axis 0.0 0.0 90.0 xyz
      dof ry rz rx
   end
   begin
      id 19
      name RightHand
      direction 0.000000 0.000000 0.000000
      length 0.000000
      axis 0.0 0.0 90.0 xyz
      dof rx ry rz
   end
   begin
      id 20
      name RightHand_dum1
      direction 0.000000 0.000000 0.000000
      length 0.000000
      axis 0.0 0.0 90.0 xyz
   end
   begin
      id 21
      name RightHand_dum2
      direction -1.000000 0.000000 0.000000
      length 3.937000
      axis 0.0 0.0 90.0 xyz
   end
   begin
      id 22
      name RightHandThumb1
      direction 0.000000 0.000000 1.000000
      length 3.937000
      axis 0.0 0.0 90.0 xyz
      dof rx rz ry
   end
   begin
      id 23
      name LeftUpLeg
      direction 0.000000 -1.000000 0.000000
      length 16.263388
      axis 0.0 0.0 0.0 xyz
      dof rx ry rz
   end
   begin
      id 24
      name LeftLeg
      direction 0.000000 -1.000000 0.000000
      length 14.328163
      axis 0.0 0.0 0.0 xyz
      dof rx ry rz
   end
   begin
      id 25
      name LeftFoot
      direction 0.000000 -0.258819 0.965926
      length 5.031290
      axis 15.0 0.0 0.0 xyz
      dof rx ry rz
   end
   begin
      id 26
      name LeftToeBase
      direction 0.000000 0.000000 1.000000
      length 2.952750
      axis 0.0 0.0 0.0 xyz
      dof rx ry rz
   end
   begin
      id 27
      name RightUpLeg
      direction 0.000000 -1.000000 0.000000
      length 16.263388
      axis 0.0 0.0 0.0 xyz
      dof rx ry rz
   end
   begin
      id 28
      name RightLeg
      direction 0.000000 -1.000000 0.000000
      length 14.328163
      axis 0.0 0.0 0.0 xyz
      dof rx ry rz
   end
   begin
      id 29
      name RightFoot
      direction 0.000000 -0.258819 0.965926
      length 5.031290
      axis 15.0 0.0 0.0 xyz
      dof rx ry rz
   end
   begin
      id 30
      name RightToeBase
      direction 0.000000 0.000000 1.000000
      length 2.952750
      axis 0.0 0.0 0.0 xyz
      dof rx ry rz
   end
:hierarchy
   begin
      root Spine_dum LeftUpLeg_dum RightUpLeg_dum
      Spine_dum Spine
      LeftUpLeg_dum LeftUpLeg
      RightUpLeg_dum RightUpLeg
      Spine Spine_dum1 Spine_dum2 Spine_dum3
      Spine_dum1 Head
      Spine_dum2 LeftShoulder
      Spine_dum3 RightShoulder
      LeftShoulder LeftArm
      LeftArm LeftForeArm
      LeftForeArm LeftHand
      LeftHand LeftHand_dum1 LeftHand_dum2
      LeftHand_dum1 LeftHandThumb1
      RightShoulder RightArm
      RightArm RightForeArm
      RightForeArm RightHand
      RightHand RightHand_dum1 RightHand_dum2
      RightHand_dum1 RightHandThumb1
      LeftUpLeg LeftLeg
      LeftLeg LeftFoot
      LeftFoot LeftToeBase
      RightUpLeg RightLeg
      RightLeg RightFoot
      RightFoot RightToeBase
   end

# File created by Blade
# Date/Time:  Tue Apr 07 21:12:38 2015
# Frame Rate: 120.000 fps
#------------------------------------------------------
:FULLY-SPECIFIED
:DEGREES
392
root 27.548052 16.203690 4.981604 351.905831 -67.650019 -321.038496
Spine 63.101360 -10.198757 -10.125405
Head -28.851366 -0.486005 18.741551
LeftShoulder 2.885433 16.864467 43.848969
LeftArm 99.503743 -29.974081 -63.624405
LeftForeArm -2.072127 -0.000000 18.237247
LeftHand 24.883980 0.000000 55.712424
LeftHandThumb1 -26.253704 0.000000 33.147579
RightShoulder 3.107732 24.928315 -26.441944
RightArm 45.597315 -4.319349 78.902075
RightForeArm -17.368857 -0.000000 38.771004
RightHand 33.325117 -0.000000 -58.512381
RightHandThumb1 -24.326973 -0.000000 -32.862282
LeftUpLeg -80.362934 0.500172 -8.200224
LeftLeg 134.752748 -0.000000 -0.000000
LeftFoot -27.574016 -19.760973 0.291179
LeftToeBase -74.911527 -0.000000 0.000000
RightUpLeg -68.955336 -2.956381 -0.009601
RightLeg 141.127940 -0.000000 -0.000000
RightFoot -17.296325 -17.213175 7.008790
RightToeBase -72.750674 -0.000000 0.000000
393
root 27.486478 16.225680 5.016996 351.816876 -67.869712 -320.849453
Spine 63.020481 -10.106235 -10.162081
Head -28.743234 -0.522109 18.489856
LeftShoulder 2.789465 16.972907 43.584306
LeftArm 99.386792 -29.942633 -63.181480
LeftForeArm -2.154714 -0.000000 18.263961
LeftHand 24.876465 -0.000000 56.113806
LeftHandThumb1 -26.253704 0.000000 33.147579
RightShoulder 3.206571 24.995659 -26.479188
RightArm 45.430642 -4.328765 79.116788
RightForeArm -17.514087 -0.000000 38.701326
RightHand 33.372497 0.000000 -58.587723
RightHandThumb1 -24.326973 -0.000000 -32.862282
LeftUpLeg -80.200978 0.508516 -8.234189
LeftLeg 134.703686 -0.000000 -0.000000
LeftFoot -27.574866 -19.524860 0.298048
LeftToeBase -75.204711 -0.000000 0.000000
RightUpLeg -68.817322 -2.997587 -0.061686
RightLeg 140.985946 -0.000000 -0.000000
RightFoot -17.369321 -17.182635 6.984055
RightToeBase -72.607939 -0.000000 0.000000
394
root 27.429815 16.247994 5.057150 351.873568 -68.054066 -320.685860
Spine 62.786987 -9.973541 -10.058340
Head -28.682078 -0.608164 18.408743
LeftShoulder 2.740327 17.227212 43.786678
LeftArm 99.635942 -29.570801 -63.758857
LeftForeArm -1.879978 -0.000000 18.634820
LeftHand 24.739105 -0.000000 56.517311
LeftHandThumb1 -26.253704 0.000000 33.147579
RightShoulder 3.195836 24.865878 -26.420454
RightArm 45.379500 -4.387851 79.041729
RightForeArm -17.494716 -0.000000 38.668786
RightHand 33.429006 0.000000 -58.738618
RightHandThumb1 -24.326973 -0.000000 -32.862282
LeftUpLeg -80.165080 0.430218 -8.284618
LeftLeg 134.646064 -0.000000 -0.000000
LeftFoot -27.574199 -19.316352 0.255451
LeftToeBase -75.425240 -0.000000 0.000000
RightUpLeg -68.769564 -3.158626 -0.147529
RightLeg 140.843114 -0.000000 -0.000000
RightFoot -17.535617 -17.024543 6.931701
RightToeBase -72.446084 -0.000000 0.000000
395
root 27.378977 16.268771 5.096122 351.652671 -68.225850 -320.431711
Spine 62.816846 -10.016081 -10.196988
Head -28.590229 -0.698332 18.049962
LeftShoulder 2.610912 16.968899 43.137800
LeftArm 99.082441 -29.657064 -62.610683
LeftForeArm -2.270386 -0.000000 18.461683
LeftHand 24.852779 -0.000000 56.880697
LeftHandThumb1 -26.253704 0.000000 33.147579
RightShoulder 3.388946 24.908113 -26.574515
RightArm 45.310486 -4.338312 79.317570
RightForeArm -17.621075 -0.000000 38.627189
RightHand 33.511332 0.000000 -58.822914
RightHandThumb1 -24.326973 -0.000000 -32.862282
LeftUpLeg -79.952558 0.361721 -8.377719
LeftLeg 134.586099 -0.000000 -0.000000
LeftFoot -27.550955 -19.090829 0.197165
LeftToeBase -75.721907 -0.000000 0.000000
RightUpLeg -68.566609 -3.319215 -0.265635
RightLeg 140.713324 -0.000000 -0.000000
RightFoot -17.663537 -16.929847 6.847031
RightToeBase -72.438541 -0.000000 0.000000
396
root 27.331813 16.291299 5.136739 351.465551 -68.402050 -320.174691
Spine 62.814147 -10.008725 -10.279438
Head -28.543416 -0.801048 17.801936
LeftShoulder 2.476271 17.164811 42.801834
LeftArm 99.130870 -29.711326 -62.298874
LeftForeArm -2.365043 -0.000000 18.469773
LeftHand 24.928184 0.000000 57.197693
LeftHandThumb1 -26.253704 0.000000 33.147579
RightShoulder 3.505410 24.999051 -26.644629
RightArm 45.218565 -4.353405 79.453594
RightForeArm -17.749718 0.000000 38.566878
RightHand 33.513651 0.000000 -59.038960
RightHandThumb1 -24.326973 -0.000000 -32.862282
LeftUpLeg -79.784950 0.291282 -8.476904
LeftLeg 134.517742 -0.000000 -0.000000
LeftFoot -27.518120 -18.851102 0.150843
LeftToeBase -76.081290 -0.000000 0.000000
RightUpLeg -68.391740 -3.486342 -0.411273
RightLeg 140.576960 -0.000000 -0.000000
RightFoot -17.818939 -16.789089 6.753007
RightToeBase -72.352234 -0.000000 0.000000
397
root 27.285737 16.312871 5.174101 351.430836 -68.579659 -320.015613
Spine 62.725364 -9.953889 -10.257313
Head -28.495066 -0.908096 17.646896
LeftShoulder 2.367565 17.304424 42.663202
LeftArm 99.226271 -29.582356 -62.307552
LeftForeArm -2.296668 -0.000000 18.554690
LeftHand 24.935073 -0.000000 57.495807
LeftHandThumb1 -26.253704 0.000000 33.147579
RightShoulder 3.548558 24.956517 -26.652273
RightArm 45.227682 -4.401741 79.423761
RightForeArm -17.766875 0.000000 38.496309
RightHand 33.618345 0.000000 -59.214387
RightHandThumb1 -24.326973 -0.000000 -32.862282
LeftUpLeg -79.689193 0.202346 -8.522178
LeftLeg 134.457815 -0.000000 -0.000000
LeftFoot -27.497385 -18.626750 0.128745
LeftToeBase -76.276172 -0.000000 0.000000
RightUpLeg -68.297167 -3.622603 -0.496527
RightLeg 140.438571 -0.000000 -0.000000
RightFoot -17.952123 -16.652373 6.700777
RightToeBase -72.276800 -0.000000 0.000000
398
root 27.241050 16.335819 5.213926 351.352871 -68.740861 -319.855109
Spine 62.709581 -9.923457 -10.265272
Head -28.482367 -1.016820 17.523481
LeftShoulder 2.213300 17.400984 42.499167
LeftArm 99.263953 -29.457411 -62.235060
LeftForeArm -2.271440 -0.000000 18.636247
LeftHand 24.945162 -0.000000 57.756668
LeftHandThumb1 -26.253704 0.000000 33.147579
RightShoulder 3.587924 25.004979 -26.666428
RightArm 45.172473 -4.454391 79.408586
RightForeArm -17.782165 -0.000000 38.452871
RightHand 33.770393 -0.000000 -59.290456
RightHandThumb1 -24.326973 -0.000000 -32.862282
LeftUpLeg -79.544107 0.110110 -8.580785
LeftLeg 134.381796 -0.000000 -0.000000
LeftFoot -27.504246 -18.431479 0.060662
LeftToeBase -76.585889 -0.000000 0.000000
RightUpLeg -68.148002 -3.790587 -0.610998
RightLeg 140.294036 -0.000000 -0.000000
RightFoot -18.120827 -16.479451 6.627260
RightToeBase -72.133957 -0.000000 0.000000
399
root 27.201282 16.358202 5.254881 351.181969 -68.889774 -319.599087
Spine 62.692522 -9.893084 -10.291673
Head -28.463390 -1.123537 17.372372
LeftShoulder 2.082053 17.515438 42.335469
LeftArm 99.309710 -29.378495 -62.127359
LeftForeArm -2.293402 0.000000 18.707485
LeftHand 24.971299 -0.000000 58.054366
LeftHandThumb1 -26.253704 0.000000 33.147579
RightShoulder 3.626581 25.018462 -26.715675
RightArm 45.120430 -4.500110 79.377356
RightForeArm -17.799885 -0.000000 38.448919
RightHand 33.766498 0.000000 -59.430705
RightHandThumb1 -24.326973 -0.000000 -32.862282
LeftUpLeg -79.412421 0.016791 -8.687008
LeftLeg 134.300783 -0.000000 -0.000000
LeftFoot -27.485940 -18.237281 -0.038761
LeftToeBase -76.911255 -0.000000 0.000000
RightUpLeg -67.996623 -3.979494 -0.791780
RightLeg 140.158888 -0.000000 -0.000000
RightFoot -18.340374 -16.236600 6.561988
RightToeBase -72.113572 -0.000000 0.000000
400
root 27.167756 16.379682 5.293488 351.101963 -69.037455 -319.420597
Spine 62.657392 -9.864952 -10.287979
Head -28.432169 -1.211078 17.259313
LeftShoulder 1.950564 17.639010 42.190207
LeftArm 99.432971 -29.290890 -62.105267
LeftForeArm -2.292931 -0.000000 18.733574
LeftHand 25.015900 0.000000 58.322609
LeftHandThumb1 -26.253704 0.000000 33.147579
RightShoulder 3.659398 24.898536 -26.748478
RightArm 45.209635 -4.536425 79.253461
RightForeArm -17.761854 -0.000000 38.464235
RightHand 33.787749 0.000000 -59.509752
RightHandThumb1 -24.326973 -0.000000 -32.862282
LeftUpLeg -79.330594 -0.092607 -8.761995
LeftLeg 134.226604 -0.000000 -0.000000
LeftFoot -27.465564 -18.074731 -0.147301
LeftToeBase -77.017779 -0.000000 0.000000
RightUpLeg -67.892448 -4.144448 -0.943256
RightLeg 140.021946 -0.000000 -0.000000
RightFoot -18.514846 -16.010970 6.506968
RightToeBase -72.178396 -0.000000 0.000000
401
root 27.133498 16.403206 5.331534 351.059380 -69.197036 -319.304690
Spine 62.653709 -9.813726 -10.242900
Head -28.430562 -1.296844 17.144292
LeftShoulder 1.828731 17.734129 42.061921
LeftArm 99.577112 -29.193298 -62.135894
LeftForeArm -2.249124 0.000000 18.742715
LeftHand 25.130744 -0.000000 58.587928
LeftHandThumb1 -26.253704 0.000000 33.147579
RightShoulder 3.656189 24.924159 -26.775689
RightArm 45.186812 -4.582248 79.187544
RightForeArm -17.755579 0.000000 38.433072
RightHand 33.828739 -0.000000 -59.740382
RightHandThumb1 -24.326973 -0.000000 -32.862282
LeftUpLeg -79.206927 -0.185208 -8.823594
LeftLeg 134.141130 -0.000000 -0.000000
LeftFoot -27.514619 -17.858262 -0.211687
LeftToeBase -77.239355 -0.000000 0.000000
RightUpLeg -67.784990 -4.278489 -1.065976
RightLeg 139.862344 -0.000000 -0.000000
RightFoot -18.608391 -15.794236 6.488658
RightToeBase -72.419039 -0.000000 0.000000
402
root 27.103496 16.426174 5.371134 350.948704 -69.348638 -319.128620
Spine 62.670623 -9.768579 -10.225068
Head -28.431933 -1.389025 17.021159
LeftShoulder 1.687667 17.841084 41.949501
LeftArm 99.733514 -29.096888 -62.183953
LeftForeArm -2.220165 -0.000000 18.786463
LeftHand 25.078709 -0.000000 58.864210
LeftHandThumb1 -26.253704 0.000000 33.147579
RightShoulder 3.636839 24.978505 -26.843708
RightArm 45.125612 -4.617965 79.179829
RightForeArm -17.712999 -0.000000 38.437089
RightHand 33.887969 -0.000000 -59.816306
RightHandThumb1 -24.326973 -0.000000 -32.862282
LeftUpLeg -79.083160 -0.287084 -8.908248
LeftLeg 134.062486 -0.000000 -0.000000
LeftFoot -27.527481 -17.655662 -0.285466
LeftToeBase -77.260837 -0.000000 0.000000
RightUpLeg -67.661473 -4.451091 -1.244208
RightLeg 139.707664 -0.000000 -0.000000
RightFoot -18.717024 -15.505302 6.417415
RightToeBase -72.795551 -0.000000 0.000000
403
root 27.079986 16.450074 5.410427 350.752827 -69.501258 -318.851596
Spine 62.666029 -9.717249 -10.263960
Head -28.361868 -1.447644 16.941198
LeftShoulder 1.564926 18.047966 41.855774
LeftArm 99.951712 -29.077206 -62.234859
LeftForeArm -2.221321 0.000000 18.808860
LeftHand 25.085944 0.000000 59.122013
LeftHandThumb1 -26.253704 0.000000 33.147579
RightShoulder 3.671853 24.978598 -26.894352
RightArm 45.087323 -4.571343 79.220665
RightForeArm -17.779550 -0.000000 38.484781
RightHand 33.918016 -0.000000 -59.794322
RightHandThumb1 -24.326973 -0.000000 -32.862282
LeftUpLeg -78.980965 -0.394501 -9.044286
LeftLeg 133.973594 -0.000000 -0.000000
LeftFoot -27.548377 -17.450672 -0.396471
LeftToeBase -77.316231 -0.000000 0.000000
RightUpLeg -67.540619 -4.619562 -1.480844
RightLeg 139.559708 -0.000000 -0.000000
RightFoot -18.874744 -15.215432 6.267002
RightToeBase -73.011451 -0.000000 0.000000
